<?xml version="1.0" encoding="UTF-8"?>
<svg id="Layer_2" data-name="Layer 2" xmlns="http://www.w3.org/2000/svg" viewBox="0 0 87.63 92.47">
  <defs>
    <style>
      .cls-1 {
        fill: #fff;
      }
    </style>
  </defs>
  <g id="Layer_1-2" data-name="Layer 1">
    <rect class="cls-1" y="0" width="24.86" height="24.86" rx="3.41" ry="3.41"/>
    <rect class="cls-1" y="33.81" width="24.86" height="24.86" rx="3.41" ry="3.41"/>
    <rect class="cls-1" y="67.61" width="24.86" height="24.86" rx="3.41" ry="3.41"/>
    <path class="cls-1" d="M81.96,46.23h0c0-4.76.64-9.5,1.9-14.09l3.19-11.58c1.66-6.05-.3-12.52-5.06-16.62h0C79.04,1.4,75.27,0,71.37,0h-3.04c-6.7,0-13.18,2.4-18.26,6.77h0c-6.54,5.62-10.3,13.82-10.3,22.44v17.02s0,17.02,0,17.02c0,8.63,3.76,16.82,10.3,22.44h0c5.08,4.37,11.56,6.77,18.26,6.77h3.04c3.9,0,7.66-1.4,10.61-3.94h0c4.75-4.1,6.72-10.57,5.06-16.62l-3.19-11.58c-1.26-4.59-1.9-9.33-1.9-14.09h0Z"/>
  </g>
</svg>